<svg width="22" height="22" viewBox="0 0 22 22">
<path fill-rule="evenodd" clip-rule="evenodd" d="M6 0C2.68628 0 0 2.68628 0 6V16C0 19.3137 2.68628 22 6 22H16C19.3137 22 22 19.3137 22 16V6C22 2.68628 19.3137 0 16 0H6ZM9.52332 10.793C10.5608 11.0855 11.0629 11.8659 11.0629 12.9216C11.0629 14.6304 9.62268 15.3633 8.08936 15.3633H4V6.95331H7.97791C9.42273 6.95331 10.675 7.36176 10.675 9.0368C10.675 9.88635 10.2803 10.4325 9.52332 10.793ZM7.5946 8.38898H5.85437V10.3514H7.73462C8.39722 10.3514 8.86572 10.064 8.86572 9.34991C8.86572 8.57635 8.26355 8.38898 7.5946 8.38898ZM5.85388 11.6191V13.9351H7.83679C8.59155 13.9351 9.20789 13.6694 9.20789 12.8199C9.20789 11.9584 8.69153 11.6191 7.87512 11.6191H5.85388ZM17.5969 13.4746C17.1422 14.8674 16.1973 15.5227 14.7382 15.5227C12.8094 15.5227 11.6121 14.2219 11.6121 12.3252C11.6121 10.4976 12.8757 9.10254 14.7375 9.10254C16.7485 9.10254 17.8363 10.7667 17.6969 12.7194H13.2905C13.2905 13.6951 13.807 14.2693 14.7902 14.2693C15.2998 14.2693 15.9568 13.9945 16.1161 13.4746H17.5969ZM16.0231 11.6671C15.9521 10.8598 15.5283 10.3662 14.6857 10.3662C13.8812 10.3662 13.3483 10.8667 13.2928 11.6671H16.0231ZM12.9506 7.39496H16.3715V8.22333H12.9506V7.39496Z" fill="evenodd"/>
</svg>
