<svg width="23" height="23" viewBox="0 0 23 23">
<path d="M22.4537 6.60801C22.4011 5.41377 22.208 4.59275 21.9313 3.88131C21.6459 3.12615 21.2068 2.45005 20.6316 1.888C20.0695 1.31721 19.389 0.873682 18.6426 0.592745C17.927 0.316096 17.1103 0.122974 15.916 0.0703199C14.7129 0.0132064 14.3309 0 11.2794 0C8.22785 0 7.84589 0.0132064 6.64719 0.0658606C5.45296 0.118515 4.63193 0.311809 3.92067 0.588286C3.16533 0.873682 2.48923 1.31275 1.92719 1.888C1.3564 2.45005 0.913038 3.13061 0.63193 3.87703C0.355281 4.59275 0.162159 5.40931 0.109504 6.60355C0.052391 7.80671 0.0391846 8.18866 0.0391846 11.2402C0.0391846 14.2917 0.052391 14.6737 0.105045 15.8724C0.157699 17.0666 0.350993 17.8877 0.627642 18.5991C0.913038 19.3543 1.3564 20.0304 1.92719 20.5924C2.48923 21.1632 3.16979 21.6067 3.91621 21.8877C4.63193 22.1643 5.4485 22.3574 6.64291 22.4101C7.84143 22.4629 8.22356 22.4759 11.2751 22.4759C14.3266 22.4759 14.7086 22.4629 15.9073 22.4101C17.1015 22.3574 17.9226 22.1643 18.6338 21.8877C20.1443 21.3037 21.3386 20.1094 21.9226 18.5991C22.199 17.8834 22.3923 17.0666 22.445 15.8724C22.4976 14.6737 22.5108 14.2917 22.5108 11.2402C22.5108 8.18866 22.5064 7.80671 22.4537 6.60801ZM20.4297 15.7846C20.3814 16.8823 20.197 17.475 20.0433 17.8702C19.6656 18.8493 18.8885 19.6264 17.9093 20.0041C17.5142 20.1578 16.9172 20.3422 15.8238 20.3904C14.6383 20.4432 14.2827 20.4562 11.2838 20.4562C8.28496 20.4562 7.92496 20.4432 6.74376 20.3904C5.64608 20.3422 5.05333 20.1578 4.65817 20.0041C4.17091 19.824 3.72738 19.5386 3.36737 19.1654C2.99416 18.801 2.70877 18.3619 2.52868 17.8746C2.375 17.4795 2.19063 16.8823 2.14243 15.789C2.08961 14.6036 2.07657 14.2478 2.07657 11.249C2.07657 8.25007 2.08961 7.89006 2.14243 6.70903C2.19063 5.61135 2.375 5.01861 2.52868 4.62345C2.70877 4.13601 2.99416 3.69265 3.37183 3.33248C3.73612 2.95927 4.17519 2.67387 4.66263 2.49395C5.05779 2.34028 5.655 2.1559 6.74821 2.10754C7.9337 2.05488 8.28942 2.04168 11.2881 2.04168C14.2915 2.04168 14.647 2.05488 15.8282 2.10754C16.9259 2.1559 17.5186 2.34028 17.9138 2.49395C18.4011 2.67387 18.8446 2.95927 19.2046 3.33248C19.5778 3.69694 19.8632 4.13601 20.0433 4.62345C20.197 5.01861 20.3814 5.61564 20.4297 6.70903C20.4824 7.89452 20.4956 8.25007 20.4956 11.249C20.4956 14.2478 20.4824 14.5991 20.4297 15.7846Z" fill="evenodd"/>
<path d="M11.2796 5.46643C8.09209 5.46643 5.50586 8.05249 5.50586 11.2402C5.50586 14.4279 8.09209 17.014 11.2796 17.014C14.4674 17.014 17.0534 14.4279 17.0534 11.2402C17.0534 8.05249 14.4674 5.46643 11.2796 5.46643ZM11.2796 14.9855C9.21172 14.9855 7.53433 13.3083 7.53433 11.2402C7.53433 9.17212 9.21172 7.4949 11.2796 7.4949C13.3477 7.4949 15.0249 9.17212 15.0249 11.2402C15.0249 13.3083 13.3477 14.9855 11.2796 14.9855V14.9855Z" fill="evenodd"/>
<path d="M18.6298 5.23817C18.6298 5.98253 18.0263 6.58608 17.2817 6.58608C16.5374 6.58608 15.9338 5.98253 15.9338 5.23817C15.9338 4.49364 16.5374 3.89026 17.2817 3.89026C18.0263 3.89026 18.6298 4.49364 18.6298 5.23817V5.23817Z" fill="evenodd"/>
</svg>
