<svg width="23" height="23" viewBox="0 0 23 23">
<path d="M10 1.5C10 0.67157 10.6716 0 11.5 0C12.3284 0 13 0.67157 13 1.5V3.5C13 4.32843 12.3284 5 11.5 5C10.6716 5 10 4.32843 10 3.5V1.5Z" fill="evenodd"/>
<path d="M16 11.5C16 13.9853 13.9852 16 11.5 16C9.01477 16 7 13.9853 7 11.5C7 9.01472 9.01477 7 11.5 7C13.9852 7 16 9.01472 16 11.5Z" fill="evenodd"/>
<path d="M19.6317 3.36828C19.0459 2.78249 18.0962 2.78249 17.5104 3.36828L16.0962 4.78249C15.5104 5.36828 15.5104 6.31802 16.0962 6.90381C16.682 7.4896 17.6317 7.4896 18.2175 6.90381L19.6317 5.4896C20.2175 4.90381 20.2175 3.95406 19.6317 3.36828Z" fill="evenodd"/>
<path d="M21.5 10C22.3284 10 23 10.6716 23 11.5C23 12.3284 22.3284 13 21.5 13H19.5C18.6716 13 18 12.3284 18 11.5C18 10.6716 18.6716 10 19.5 10H21.5Z" fill="evenodd"/>
<path d="M19.6317 19.6317C20.2175 19.0459 20.2175 18.0962 19.6317 17.5104L18.2175 16.0962C17.6317 15.5104 16.682 15.5104 16.0962 16.0962C15.5104 16.682 15.5104 17.6317 16.0962 18.2175L17.5104 19.6317C18.0962 20.2175 19.0459 20.2175 19.6317 19.6317Z" fill="evenodd"/>
<path d="M10 19.5C10 18.6716 10.6716 18 11.5 18C12.3284 18 13 18.6716 13 19.5V21.5C13 22.3284 12.3284 23 11.5 23C10.6716 23 10 22.3284 10 21.5V19.5Z" fill="evenodd"/>
<path d="M6.90381 16.0962C6.31799 15.5104 5.36829 15.5104 4.78247 16.0962L3.36829 17.5104C2.78247 18.0962 2.78247 19.0459 3.36829 19.6317C3.9541 20.2175 4.90381 20.2175 5.48962 19.6317L6.90381 18.2175C7.48962 17.6317 7.48962 16.682 6.90381 16.0962Z" fill="evenodd"/>
<path d="M3.5 10C4.32837 10 5 10.6716 5 11.5C5 12.3284 4.32837 13 3.5 13H1.5C0.671631 13 0 12.3284 0 11.5C0 10.6716 0.671631 10 1.5 10H3.5Z" fill="evenodd"/>
<path d="M6.90381 6.9038C7.48962 6.31802 7.48962 5.36826 6.90381 4.78248L5.48962 3.36826C4.90381 2.78248 3.9541 2.78248 3.36829 3.36826C2.78247 3.95405 2.78247 4.9038 3.36829 5.48959L4.78247 6.9038C5.36829 7.48959 6.31799 7.48959 6.90381 6.9038Z" fill="evenodd"/>
</svg>
